HIERARCHY
ROOT root
{
	OFFSET 0.000000 0.000000 0.000000
	CHANNELS 6 Xposition Yposition Zposition Zrotation Yrotation Xrotation
	JOINT lhip
	{
		OFFSET 0.058581 -0.082280 -0.017664
		CHANNELS 3 Zrotation Yrotation Xrotation
		JOINT lknee
		{
			OFFSET 0.043451 -0.386469 0.008037
			CHANNELS 3 Zrotation Yrotation Xrotation
			JOINT lankle
			{
				OFFSET -0.014790 -0.426874 -0.037428
				CHANNELS 3 Zrotation Yrotation Xrotation
				JOINT ltoe
				{
					OFFSET 0.041054 -0.060286 0.122042
					CHANNELS 3 Zrotation Yrotation Xrotation
					End Site
					{
						OFFSET 0.000000 0.000000 0.000000
					}
				}
			}
		}
	}
	JOINT rhip
	{
		OFFSET -0.060310 -0.090513 -0.013543
		CHANNELS 3 Zrotation Yrotation Xrotation
		JOINT rknee
		{
			OFFSET -0.043257 -0.383688 -0.004843
			CHANNELS 3 Zrotation Yrotation Xrotation
			JOINT rankle
			{
				OFFSET 0.019056 -0.420046 -0.034562
				CHANNELS 3 Zrotation Yrotation Xrotation
				JOINT rtoe
				{
					OFFSET -0.034840 -0.062106 0.130323
					CHANNELS 3 Zrotation Yrotation Xrotation
					End Site
					{
						OFFSET 0.000000 0.000000 0.000000
					}
				}
			}
		}
	}
	JOINT lowerback
	{
		OFFSET 0.004439 0.124404 -0.038385
		CHANNELS 3 Zrotation Yrotation Xrotation
		JOINT upperback
		{
			OFFSET 0.004488 0.137956 0.026820
			CHANNELS 3 Zrotation Yrotation Xrotation
			JOINT chest
			{
				OFFSET -0.002265 0.056032 0.002855
				CHANNELS 3 Zrotation Yrotation Xrotation
				JOINT lowerneck
				{
					OFFSET -0.013390 0.211636 -0.033468
					CHANNELS 3 Zrotation Yrotation Xrotation
					JOINT upperneck
					{
						OFFSET 0.010113 0.088937 0.050410
						CHANNELS 3 Zrotation Yrotation Xrotation
						End Site
						{
							OFFSET 0.000000 0.000000 0.000000
						}
					}
				}
				JOINT lclavicle
				{
					OFFSET 0.071702 0.114000 -0.018898
					CHANNELS 3 Zrotation Yrotation Xrotation
					JOINT lshoulder
					{
						OFFSET 0.122921 0.045205 -0.019046
						CHANNELS 3 Zrotation Yrotation Xrotation
						JOINT lelbow
						{
							OFFSET 0.255332 -0.015649 -0.022946
							CHANNELS 3 Zrotation Yrotation Xrotation
							JOINT lwrist
							{
								OFFSET 0.265709 0.012698 -0.007375
								CHANNELS 3 Zrotation Yrotation Xrotation
								End Site
								{
									OFFSET 0.000000 0.000000 0.000000
								}
							}
						}
					}
				}
				JOINT rclavicle
				{
					OFFSET -0.082954 0.112472 -0.023707
					CHANNELS 3 Zrotation Yrotation Xrotation
					JOINT rshoulder
					{
						OFFSET -0.113228 0.046853 -0.008472
						CHANNELS 3 Zrotation Yrotation Xrotation
						JOINT relbow
						{
							OFFSET -0.260127 -0.014369 -0.031269
							CHANNELS 3 Zrotation Yrotation Xrotation
							JOINT rwrist
							{
								OFFSET -0.269108 0.006794 -0.006027
								CHANNELS 3 Zrotation Yrotation Xrotation
								End Site
								{
									OFFSET 0.000000 0.000000 0.000000
								}
							}
						}
					}
				}
			}
		}
	}
}
MOTION
Frames: 5
Frame Time: 0.033333
0.318349 0.117395 0.980780 -10.271251 5.138599 100.343749 -0.604468 -5.272299 -28.866329 -2.898254 -2.267735 23.045069 5.762936 16.971444 -9.657759 0.000000 -0.000000 0.000000 -3.524353 8.923926 -14.621822 4.102390 7.757449 80.428954 3.470938 -14.840843 -17.728296 0.000000 -0.000000 0.000000 0.310127 3.117068 24.493540 2.105260 -0.180069 2.137014 2.543676 0.126857 5.413468 -5.264438 3.444337 2.061908 -5.953279 4.434097 -18.029680 -14.001461 17.404350 -0.642167 -63.617241 29.234822 -13.728856 4.023687 -6.232301 27.869620 -15.589529 -1.983965 10.112180 11.465215 -10.499442 -8.265314 47.501867 -16.014278 -8.500282 -46.765659 57.508659 -46.571663 3.927320 30.823157 -60.393802 
0.317756 0.118226 0.977528 -10.052869 5.303493 102.414065 0.371720 -7.212846 -31.646751 -2.752201 -1.522983 23.938598 6.317662 17.904313 -9.777095 0.000000 -0.000000 0.000000 -4.537915 9.070008 -9.068863 2.456241 9.606504 63.701559 3.466513 -18.906276 -17.895005 0.000000 -0.000000 0.000000 0.647581 3.939745 22.400932 2.356681 -0.296182 1.194230 2.727313 -0.127701 6.330458 -6.308690 3.272846 1.690077 -5.983153 5.913635 -17.791436 -11.720356 19.629383 0.648223 -63.230921 30.859433 -17.126839 4.717356 -4.648318 26.514789 -16.938248 -1.823541 11.233024 9.987202 -11.881749 -6.564821 48.346206 -15.089733 -8.448864 -45.800631 56.722394 -46.608634 5.819211 32.436645 -59.418123 
0.316311 0.121028 0.969873 -10.333946 5.171081 104.787587 1.118518 -8.223135 -35.546557 -2.654601 -0.277735 25.966170 6.796083 18.117666 -11.484047 0.000000 -0.000000 0.000000 -5.699122 9.381278 -6.177240 2.071489 11.864563 49.486419 5.569115 -17.232863 -20.973838 0.000000 -0.000000 0.000000 0.461152 5.336010 19.327891 2.350372 -0.950429 1.389155 2.599607 0.212721 6.737199 -5.298138 5.240132 0.426836 -6.582362 5.574869 -16.797903 -8.629583 21.920685 1.640581 -62.510817 31.226134 -17.973957 6.165443 -3.575943 25.130184 -17.666044 -2.753872 8.335707 10.012567 -14.564488 -6.748510 48.330287 -14.208026 -7.583106 -45.822123 57.202771 -45.283123 5.929598 32.525859 -60.796130 
0.313132 0.124520 0.963530 -11.563722 5.202257 105.696091 2.091154 -7.692302 -37.708035 -3.342667 0.994133 27.524651 7.316517 18.155511 -12.492744 0.000000 -0.000000 0.000000 -6.186765 8.913960 -4.466059 2.651527 16.277978 38.217151 5.794732 -11.736679 -20.279886 0.000000 -0.000000 0.000000 0.029867 6.332417 17.627152 2.501827 -1.187401 0.568723 2.149764 -0.521723 8.209485 -5.312315 8.456584 -0.394854 -7.157348 5.392501 -15.686197 -7.948865 23.574909 1.428649 -60.526795 31.465044 -18.329173 6.877544 -2.867334 23.929762 -17.519595 -3.431570 6.274364 10.292438 -14.591767 -7.005196 49.086643 -13.252050 -5.632331 -50.340903 56.536777 -47.335743 5.901558 31.588051 -62.642076 
0.307765 0.128987 0.963558 -13.454855 5.796998 105.432004 2.630405 -5.054027 -37.785223 -3.430686 1.625700 27.753111 6.599069 16.800575 -13.036233 0.000000 -0.000000 0.000000 -4.996871 7.814684 -5.213324 2.546994 20.044394 32.454673 6.092091 -6.965203 -20.290603 0.000000 -0.000000 0.000000 -0.283441 7.254927 18.036974 2.059253 -1.248613 0.316693 2.319573 -0.203150 7.019913 -5.175339 10.568657 0.346147 -6.668583 6.193046 -14.359983 -6.849730 22.144518 1.287831 -59.978619 32.317219 -19.015254 7.036912 -2.733088 22.829503 -16.507200 -3.446416 6.690613 10.029081 -13.533798 -6.322685 50.513452 -13.574673 -6.146203 -52.999610 57.106945 -49.201491 6.638440 30.335991 -62.166091 
